<?xml version="1.0" encoding="UTF-8" standalone="no"?>
<svg width="142px" height="142px" viewBox="0 0 142 142" version="1.1" xmlns="http://www.w3.org/2000/svg" xmlns:xlink="http://www.w3.org/1999/xlink" style="background: #4ABDD1;">
    <!-- Generator: Sketch 39.1 (31720) - http://www.bohemiancoding.com/sketch -->
    <title>favicon</title>
    <desc>Created with Sketch.</desc>
    <defs></defs>
    <g id="Page-1" stroke="none" stroke-width="1" fill="none" fill-rule="evenodd">
        <path d="M70.5,133 C105.017797,133 133,105.017797 133,70.5 C133,35.9822031 105.017797,8 70.5,8 C65.5733422,8 56.1817993,9.64774402 56.1817993,9.64774402 C56.1817993,9.64774402 55.1992903,19.5972913 51.5272598,21.26863 C47.784842,22.9720058 46.5881953,27.7729349 45.8489799,31.5238361 C45.2841219,34.3900193 43.3722742,37.3263583 41.1492805,39.4896755 C38.9710738,41.6094082 33.6526446,42.5926665 30.7117176,43.3624611 C26.6721323,44.4198321 23.8669067,45.7300566 22.0218754,49.5264168 C20.057982,53.5673492 9.68809277,56.0107426 9.68809277,56.0107426 C9.68809277,56.0107426 8,65.5122157 8,70.5 C8,105.017797 35.9822031,133 70.5,133 Z" id="Oval" stroke="#000000" stroke-width="7" fill="#F7943D"></path>
        <circle id="Oval-2" stroke="#000000" stroke-width="5" fill="#523419" cx="70.5" cy="70.5" r="23.5"></circle>
    </g>
</svg>